# xmcd
#
# Track frame offsets: 
#        150
#        12157
#        25025
#        39585
#        50975
#        63472
#        79162
#        93075
#        107910
#        119595
#
# Disc length: 1746 seconds
#
# Revision: 5
# Processed by: cddbd v1.5.2PL0 Copyright (c) Steve Scherf et al.
# Submitted via: ExactAudioCopyFreeDBPlugin 1.0
#
DISCID=8006d00a
DTITLE=Cher - Half Breed (US)
DYEAR=1992
DGENRE=Pop
TTITLE0=Gypsys, Tramps and Thieves
TTITLE1=Don't Hide Your Love
TTITLE2=The First Time
TTITLE3=Let Me Down Easy
TTITLE4=Half Breed
TTITLE5=Dark Lady
TTITLE6=Carousel Man
TTITLE7=Song For You
TTITLE8=Train Of Thought
TTITLE9=The Way Of Love
EXTD=
EXTT0=
EXTT1=
EXTT2=
EXTT3=
EXTT4=
EXTT5=
EXTT6=
EXTT7=
EXTT8=
EXTT9=
PLAYORDER=
